<svg width="35" height="34" viewBox="0 0 35 34" fill="none" xmlns="http://www.w3.org/2000/svg">
<path d="M16.1782 4.16078L15.3306 4.93793L14.9487 4.5214C14.9486 4.52137 14.9486 4.52135 14.9486 4.52132C13.4541 2.89148 11.4564 2.00359 9.4041 2.00374C7.35176 2.00389 5.35418 2.89209 3.85981 4.52221C2.36144 6.15668 1.49986 8.39923 1.5 10.7619C1.50014 13.1245 2.36199 15.3669 3.86055 17.0012L3.86062 17.0013L17.496 31.8733L31.1429 16.9981C32.6398 15.3634 33.5003 13.1217 33.5 10.7601C33.4997 8.39858 32.6387 6.15712 31.1415 4.52287L16.1782 4.16078ZM16.1782 4.16078L15.3306 4.93793C16.4951 6.20813 18.4981 6.20692 19.6612 4.93531L20.0369 4.5245L20.0372 4.52423M16.1782 4.16078L20.0372 4.52423M20.0372 4.52423C20.0498 4.51044 20.0621 4.49643 20.0742 4.48221M20.0372 4.52423L20.0742 4.48221M20.0742 4.48221C20.8076 3.69224 21.6676 3.0719 22.6031 2.64904C23.5542 2.21915 24.5684 2 25.5891 2C26.6097 2 27.6239 2.21915 28.575 2.64904C29.5265 3.07912 30.3999 3.71349 31.1414 4.52283L20.0742 4.48221Z" stroke="black" stroke-width="3"/>
</svg>
