<svg width="27" height="29" viewBox="0 0 27 29" fill="none" xmlns="http://www.w3.org/2000/svg">
<path d="M22.275 22.9H23.9625C24.7681 22.9 25.5407 22.5207 26.1103 21.8456C26.68 21.1705 27 20.2548 27 19.3V4.9C27 3.73305 26.6089 2.61389 25.9126 1.78873C25.2164 0.96357 24.2721 0.5 23.2875 0.5H7.0875C6.68861 0.5 6.29362 0.593117 5.9251 0.774034C5.55657 0.954951 5.22172 1.22012 4.93966 1.55442C4.65761 1.88871 4.43386 2.28557 4.28121 2.72234C4.12856 3.15911 4.05 3.62724 4.05 4.1V6.1H3.0375C2.2319 6.1 1.4593 6.47928 0.889664 7.15442C0.320021 7.82955 0 8.74522 0 9.7V24.9C0 25.8548 0.320021 26.7705 0.889664 27.4456C1.4593 28.1207 2.2319 28.5 3.0375 28.5H19.2375C20.0431 28.5 20.8157 28.1207 21.3853 27.4456C21.955 26.7705 22.275 25.8548 22.275 24.9V22.9ZM20.25 9.7V24.9C20.25 25.5624 19.7964 26.1 19.2375 26.1H3.0375C2.76897 26.1 2.51143 25.9736 2.32155 25.7485C2.13167 25.5235 2.025 25.2183 2.025 24.9V9.7C2.025 9.38174 2.13167 9.07652 2.32155 8.85147C2.51143 8.62643 2.76897 8.5 3.0375 8.5H19.2375C19.506 8.5 19.7636 8.62643 19.9534 8.85147C20.1433 9.07652 20.25 9.38174 20.25 9.7Z" fill="black"/>
</svg>
